HIERARCHY
ROOT __0
{
	OFFSET 0.0 0.0 0.0
	CHANNELS 0
	JOINT Root
	{
		OFFSET 0.000000 0.000000 0.000000
		CHANNELS 6 Xposition Yposition Zposition Xrotation Yrotation Zrotation
		JOINT LegFront0.R
		{
			OFFSET -0.418178 -0.418153 0.176516
			CHANNELS 6 Xposition Yposition Zposition Xrotation Yrotation Zrotation
			JOINT LegFront1.R
			{
				OFFSET -0.323942 0.000000 0.000000
				CHANNELS 3 Xrotation Yrotation Zrotation
				JOINT LegFront2.R
				{
					OFFSET -0.647048 0.000000 -0.000230
					CHANNELS 3 Xrotation Yrotation Zrotation
					End Site
					{
						OFFSET -0.000003 0.000000 -0.916380
					}
				}
			}
		}
		JOINT LegFront0.L
		{
			OFFSET 0.418178 -0.418153 0.176516
			CHANNELS 6 Xposition Yposition Zposition Xrotation Yrotation Zrotation
			JOINT LegFront1.L
			{
				OFFSET 0.323942 0.000000 0.000000
				CHANNELS 3 Xrotation Yrotation Zrotation
				JOINT LegFront2.L
				{
					OFFSET 0.647048 0.000000 -0.000230
					CHANNELS 3 Xrotation Yrotation Zrotation
					End Site
					{
						OFFSET 0.000003 0.000000 -0.916380
					}
				}
			}
		}
		JOINT LegBack0.R
		{
			OFFSET -0.418178 0.418206 0.176516
			CHANNELS 6 Xposition Yposition Zposition Xrotation Yrotation Zrotation
			JOINT LegBack1.R
			{
				OFFSET -0.323942 0.000000 0.000000
				CHANNELS 3 Xrotation Yrotation Zrotation
				JOINT LegBack2.R
				{
					OFFSET -0.647048 0.000000 -0.000230
					CHANNELS 3 Xrotation Yrotation Zrotation
					End Site
					{
						OFFSET -0.000003 0.000000 -0.916380
					}
				}
			}
		}
		JOINT LegBack0.L
		{
			OFFSET 0.418178 0.418206 0.176516
			CHANNELS 6 Xposition Yposition Zposition Xrotation Yrotation Zrotation
			JOINT LegBack1.L
			{
				OFFSET 0.323942 0.000000 0.000000
				CHANNELS 3 Xrotation Yrotation Zrotation
				JOINT LegBack2.L
				{
					OFFSET 0.647048 0.000000 -0.000230
					CHANNELS 3 Xrotation Yrotation Zrotation
					End Site
					{
						OFFSET 0.000003 0.000000 -0.916380
					}
				}
			}
		}
	}
	JOINT LegFrontIK.L
	{
		OFFSET 1.389170 -0.418153 -0.740094
		CHANNELS 6 Xposition Yposition Zposition Xrotation Yrotation Zrotation
		End Site
		{
			OFFSET 0.000000 0.000000 -0.259647
		}
	}
	JOINT LegFrontIK.R
	{
		OFFSET -1.389170 -0.418153 -0.740094
		CHANNELS 6 Xposition Yposition Zposition Xrotation Yrotation Zrotation
		End Site
		{
			OFFSET 0.000000 0.000000 -0.259647
		}
	}
	JOINT LegBackIK.L
	{
		OFFSET 1.389170 0.418206 -0.740094
		CHANNELS 6 Xposition Yposition Zposition Xrotation Yrotation Zrotation
		End Site
		{
			OFFSET 0.000000 0.000000 -0.259647
		}
	}
	JOINT LegBackIK.R
	{
		OFFSET -1.389170 0.418206 -0.740094
		CHANNELS 6 Xposition Yposition Zposition Xrotation Yrotation Zrotation
		End Site
		{
			OFFSET 0.000000 0.000000 -0.259647
		}
	}
}
MOTION
Frames: 15
Frame Time: 0.100000
0.000000 0.000000 -0.228058 -0.000000 0.000000 -0.000000 -0.418178 -0.418153 0.176516 0.000023 -0.000012 32.009040 0.001401 20.634797 -0.007683 0.000056 -20.991207 0.000012 0.418178 -0.418153 0.176516 0.000023 0.000012 -32.009053 0.001402 -20.640074 0.007685 0.000056 20.998855 -0.000008 -0.418178 0.418206 0.176516 -0.000013 0.000022 -32.001550 0.001401 20.634743 -0.007681 0.000055 -20.991181 0.000011 0.418178 0.418206 0.176516 -0.000013 -0.000022 32.001550 0.001401 -20.634743 0.007681 0.000055 20.991181 -0.000011 1.201612 -0.907798 -0.740094 -0.000000 0.000000 -0.000000 -1.201612 -0.907798 -0.740094 -0.000000 0.000000 -0.000000 1.201612 0.907851 -0.740094 -0.000000 0.000000 -0.000000 -1.201612 0.907851 -0.740094 -0.000000 0.000000 -0.000000 
0.000000 0.000000 -0.228058 -0.000000 0.000000 -0.000000 -0.418178 -0.418153 0.176516 0.000023 -0.000012 32.009040 0.001401 20.634797 -0.007683 0.000056 -20.991207 0.000012 0.418178 -0.418153 0.176516 0.000023 0.000012 -32.009053 0.001402 -20.640074 0.007685 0.000056 20.998855 -0.000008 -0.418178 0.418206 0.176516 -0.000013 0.000022 -32.001550 0.001401 20.634743 -0.007681 0.000055 -20.991181 0.000011 0.418178 0.418206 0.176516 -0.000013 -0.000022 32.001550 0.001401 -20.634743 0.007681 0.000055 20.991181 -0.000011 1.201612 -0.907798 -0.740094 -0.000000 0.000000 -0.000000 -1.201612 -0.907798 -0.740094 -0.000000 0.000000 -0.000000 1.201612 0.907851 -0.740094 -0.000000 0.000000 -0.000000 -1.201612 0.907851 -0.740094 -0.000000 0.000000 -0.000000 
0.000000 0.000000 -0.228058 -0.000000 0.000000 -0.000000 -0.418178 -0.418153 0.176516 0.000023 -0.000012 32.009040 0.001401 20.634797 -0.007683 0.000056 -20.991207 0.000012 0.418178 -0.418153 0.176516 0.000023 0.000012 -32.009053 0.001402 -20.640074 0.007685 0.000056 20.998855 -0.000008 -0.418178 0.418206 0.176516 -0.000013 0.000022 -32.001550 0.001401 20.634743 -0.007681 0.000055 -20.991181 0.000011 0.418178 0.418206 0.176516 -0.000013 -0.000022 32.001550 0.001401 -20.634743 0.007681 0.000055 20.991181 -0.000011 1.201612 -0.907798 -0.740094 -0.000000 0.000000 -0.000000 -1.201612 -0.907798 -0.740094 -0.000000 0.000000 -0.000000 1.201612 0.907851 -0.740094 -0.000000 0.000000 -0.000000 -1.201612 0.907851 -0.740094 -0.000000 0.000000 -0.000000 
0.000000 0.000000 -0.228058 -0.000000 0.000000 -0.000000 -0.418178 -0.418153 0.176516 0.000023 -0.000012 32.009040 0.001401 20.634797 -0.007683 0.000056 -20.991207 0.000012 0.418178 -0.418153 0.176516 0.000023 0.000012 -32.009053 0.001402 -20.640074 0.007685 0.000056 20.998855 -0.000008 -0.418178 0.418206 0.176516 -0.000013 0.000022 -32.001550 0.001401 20.634743 -0.007681 0.000055 -20.991181 0.000011 0.418178 0.418206 0.176516 -0.000013 -0.000022 32.001550 0.001401 -20.634743 0.007681 0.000055 20.991181 -0.000011 1.201612 -0.907798 -0.740094 -0.000000 0.000000 -0.000000 -1.201612 -0.907798 -0.740094 -0.000000 0.000000 -0.000000 1.201612 0.907851 -0.740094 -0.000000 0.000000 -0.000000 -1.201612 0.907851 -0.740094 -0.000000 0.000000 -0.000000 
0.000000 0.000000 -0.228058 -0.000000 25.000004 -0.000000 -0.418178 -0.418153 0.176516 0.000035 -0.000016 47.127079 0.001964 -24.217638 0.009177 -0.000028 8.651624 -0.000002 0.418178 -0.418153 0.176516 0.000021 0.000010 -28.904497 0.056375 -74.584648 0.073991 0.000128 40.222946 -0.000046 -0.418178 0.418206 0.176516 -0.000015 0.000031 -47.141990 0.001967 -24.217703 0.009175 -0.000028 8.651665 -0.000003 0.418178 0.418206 0.176516 -0.000013 -0.000021 28.881407 0.056347 -74.583671 0.073991 0.000127 40.221925 -0.000044 1.201612 -0.907798 -0.740094 -0.000000 0.000000 -0.000000 -1.201612 -0.907798 -0.740094 -0.000000 0.000000 -0.000000 1.201612 0.907851 -0.740094 -0.000000 0.000000 -0.000000 -1.201612 0.907851 -0.740094 -0.000000 0.000000 -0.000000 
0.000000 0.000000 -0.228058 -0.000000 25.000004 -0.000000 -0.418178 -0.418153 0.176516 0.000035 -0.000016 47.127079 0.001964 -24.217638 0.009177 -0.000028 8.651624 -0.000002 0.418178 -0.418153 0.176516 0.000021 0.000010 -28.904497 0.056375 -74.584648 0.073991 0.000128 40.222946 -0.000046 -0.418178 0.418206 0.176516 -0.000015 0.000031 -47.141990 0.001967 -24.217703 0.009175 -0.000028 8.651665 -0.000003 0.418178 0.418206 0.176516 -0.000013 -0.000021 28.881407 0.056347 -74.583671 0.073991 0.000127 40.221925 -0.000044 1.201612 -0.907798 -0.740094 -0.000000 0.000000 -0.000000 -1.201612 -0.907798 -0.740094 -0.000000 0.000000 -0.000000 1.201612 0.907851 -0.740094 -0.000000 0.000000 -0.000000 -1.201612 0.907851 -0.740094 -0.000000 0.000000 -0.000000 
0.000000 0.000000 -0.228058 -0.000000 25.000004 -0.000000 -0.418178 -0.418153 0.176516 0.000035 -0.000016 47.127079 0.001964 -24.217638 0.009177 -0.000028 8.651624 -0.000002 0.418178 -0.418153 0.176516 0.000021 0.000010 -28.904497 0.056375 -74.584648 0.073991 0.000128 40.222946 -0.000046 -0.418178 0.418206 0.176516 -0.000015 0.000031 -47.141990 0.001967 -24.217703 0.009175 -0.000028 8.651665 -0.000003 0.418178 0.418206 0.176516 -0.000013 -0.000021 28.881407 0.056347 -74.583671 0.073991 0.000127 40.221925 -0.000044 1.201612 -0.907798 -0.740094 -0.000000 0.000000 -0.000000 -1.201612 -0.907798 -0.740094 -0.000000 0.000000 -0.000000 1.201612 0.907851 -0.740094 -0.000000 0.000000 -0.000000 -1.201612 0.907851 -0.740094 -0.000000 0.000000 -0.000000 
0.000000 0.000000 -0.228058 -0.000000 25.000004 -0.000000 -0.418178 -0.418153 0.176516 0.000035 -0.000016 47.127079 0.001964 -24.217638 0.009177 -0.000028 8.651624 -0.000002 0.418178 -0.418153 0.176516 0.000021 0.000010 -28.904497 0.056375 -74.584648 0.073991 0.000128 40.222946 -0.000046 -0.418178 0.418206 0.176516 -0.000015 0.000031 -47.141990 0.001967 -24.217703 0.009175 -0.000028 8.651665 -0.000003 0.418178 0.418206 0.176516 -0.000013 -0.000021 28.881407 0.056347 -74.583671 0.073991 0.000127 40.221925 -0.000044 1.201612 -0.907798 -0.740094 -0.000000 0.000000 -0.000000 -1.201612 -0.907798 -0.740094 -0.000000 0.000000 -0.000000 1.201612 0.907851 -0.740094 -0.000000 0.000000 -0.000000 -1.201612 0.907851 -0.740094 -0.000000 0.000000 -0.000000 
0.000000 0.000000 -0.228058 -0.000000 25.000004 -0.000000 -0.418178 -0.418153 0.176516 0.000035 -0.000016 47.127079 0.001964 -24.217638 0.009177 -0.000028 8.651624 -0.000002 0.418178 -0.418153 0.176516 0.000021 0.000010 -28.904497 0.056375 -74.584648 0.073991 0.000128 40.222946 -0.000046 -0.418178 0.418206 0.176516 -0.000015 0.000031 -47.141990 0.001967 -24.217703 0.009175 -0.000028 8.651665 -0.000003 0.418178 0.418206 0.176516 -0.000013 -0.000021 28.881407 0.056347 -74.583671 0.073991 0.000127 40.221925 -0.000044 1.201612 -0.907798 -0.740094 -0.000000 0.000000 -0.000000 -1.201612 -0.907798 -0.740094 -0.000000 0.000000 -0.000000 1.201612 0.907851 -0.740094 -0.000000 0.000000 -0.000000 -1.201612 0.907851 -0.740094 -0.000000 0.000000 -0.000000 
0.000000 0.000000 -0.228058 -0.000000 25.000004 -0.000000 -0.418178 -0.418153 0.176516 0.000035 -0.000016 47.127079 0.001964 -24.217638 0.009177 -0.000028 8.651624 -0.000002 0.418178 -0.418153 0.176516 0.000021 0.000010 -28.904497 0.056375 -74.584648 0.073991 0.000128 40.222946 -0.000046 -0.418178 0.418206 0.176516 -0.000015 0.000031 -47.141990 0.001967 -24.217703 0.009175 -0.000028 8.651665 -0.000003 0.418178 0.418206 0.176516 -0.000013 -0.000021 28.881407 0.056347 -74.583671 0.073991 0.000127 40.221925 -0.000044 1.201612 -0.907798 -0.740094 -0.000000 0.000000 -0.000000 -1.201612 -0.907798 -0.740094 -0.000000 0.000000 -0.000000 1.201612 0.907851 -0.740094 -0.000000 0.000000 -0.000000 -1.201612 0.907851 -0.740094 -0.000000 0.000000 -0.000000 
0.000000 0.000000 -0.228058 -0.000000 25.000004 -0.000000 -0.418178 -0.418153 0.176516 0.000035 -0.000016 47.127079 0.001964 -24.217638 0.009177 -0.000028 8.651624 -0.000002 0.418178 -0.418153 0.176516 0.000021 0.000010 -28.904497 0.056375 -74.584648 0.073991 0.000128 40.222946 -0.000046 -0.418178 0.418206 0.176516 -0.000015 0.000031 -47.141990 0.001967 -24.217703 0.009175 -0.000028 8.651665 -0.000003 0.418178 0.418206 0.176516 -0.000013 -0.000021 28.881407 0.056347 -74.583671 0.073991 0.000127 40.221925 -0.000044 1.201612 -0.907798 -0.740094 -0.000000 0.000000 -0.000000 -1.201612 -0.907798 -0.740094 -0.000000 0.000000 -0.000000 1.201612 0.907851 -0.740094 -0.000000 0.000000 -0.000000 -1.201612 0.907851 -0.740094 -0.000000 0.000000 -0.000000 
0.000000 0.000000 -0.228058 -0.000000 25.000004 -0.000000 -0.418178 -0.418153 0.176516 0.000035 -0.000016 47.127079 0.001964 -24.217638 0.009177 -0.000028 8.651624 -0.000002 0.418178 -0.418153 0.176516 0.000021 0.000010 -28.904497 0.056375 -74.584648 0.073991 0.000128 40.222946 -0.000046 -0.418178 0.418206 0.176516 -0.000015 0.000031 -47.141990 0.001967 -24.217703 0.009175 -0.000028 8.651665 -0.000003 0.418178 0.418206 0.176516 -0.000013 -0.000021 28.881407 0.056347 -74.583671 0.073991 0.000127 40.221925 -0.000044 1.201612 -0.907798 -0.740094 -0.000000 0.000000 -0.000000 -1.201612 -0.907798 -0.740094 -0.000000 0.000000 -0.000000 1.201612 0.907851 -0.740094 -0.000000 0.000000 -0.000000 -1.201612 0.907851 -0.740094 -0.000000 0.000000 -0.000000 
0.000000 0.000000 -0.228058 -0.000000 25.000004 -0.000000 -0.418178 -0.418153 0.176516 0.000035 -0.000016 47.127079 0.001964 -24.217638 0.009177 -0.000028 8.651624 -0.000002 0.418178 -0.418153 0.176516 0.000021 0.000010 -28.904497 0.056375 -74.584648 0.073991 0.000128 40.222946 -0.000046 -0.418178 0.418206 0.176516 -0.000015 0.000031 -47.141990 0.001967 -24.217703 0.009175 -0.000028 8.651665 -0.000003 0.418178 0.418206 0.176516 -0.000013 -0.000021 28.881407 0.056347 -74.583671 0.073991 0.000127 40.221925 -0.000044 1.201612 -0.907798 -0.740094 -0.000000 0.000000 -0.000000 -1.201612 -0.907798 -0.740094 -0.000000 0.000000 -0.000000 1.201612 0.907851 -0.740094 -0.000000 0.000000 -0.000000 -1.201612 0.907851 -0.740094 -0.000000 0.000000 -0.000000 
0.000000 0.000000 -0.228058 -0.000000 25.000004 -0.000000 -0.418178 -0.418153 0.176516 0.000035 -0.000016 47.127079 0.001964 -24.217638 0.009177 -0.000028 8.651624 -0.000002 0.418178 -0.418153 0.176516 0.000021 0.000010 -28.904497 0.056375 -74.584648 0.073991 0.000128 40.222946 -0.000046 -0.418178 0.418206 0.176516 -0.000015 0.000031 -47.141990 0.001967 -24.217703 0.009175 -0.000028 8.651665 -0.000003 0.418178 0.418206 0.176516 -0.000013 -0.000021 28.881407 0.056347 -74.583671 0.073991 0.000127 40.221925 -0.000044 1.201612 -0.907798 -0.740094 -0.000000 0.000000 -0.000000 -1.201612 -0.907798 -0.740094 -0.000000 0.000000 -0.000000 1.201612 0.907851 -0.740094 -0.000000 0.000000 -0.000000 -1.201612 0.907851 -0.740094 -0.000000 0.000000 -0.000000 
0.000000 0.000000 -0.228058 -0.000000 0.000000 -0.000000 -0.418178 -0.418153 0.176516 0.000023 -0.000012 32.009040 0.001401 20.634797 -0.007683 0.000056 -20.991207 0.000012 0.418178 -0.418153 0.176516 0.000023 0.000012 -32.009053 0.001402 -20.640074 0.007685 0.000056 20.998855 -0.000008 -0.418178 0.418206 0.176516 -0.000013 0.000022 -32.001550 0.001401 20.634743 -0.007681 0.000055 -20.991181 0.000011 0.418178 0.418206 0.176516 -0.000013 -0.000022 32.001550 0.001401 -20.634743 0.007681 0.000055 20.991181 -0.000011 1.201612 -0.907798 -0.740094 -0.000000 0.000000 -0.000000 -1.201612 -0.907798 -0.740094 -0.000000 0.000000 -0.000000 1.201612 0.907851 -0.740094 -0.000000 0.000000 -0.000000 -1.201612 0.907851 -0.740094 -0.000000 0.000000 -0.000000 
